# Blender 4.0.2
# www.blender.org
mtllib house.mtl
o Cube
v -5.000000 -0.500000 5.000000
v -5.000000 0.000000 5.000000
v -5.000000 -0.500000 -5.000000
v -5.000000 0.000000 -5.000000
v 5.000000 -0.500000 5.000000
v 5.000000 0.000000 5.000000
v 5.000000 -0.500000 -5.000000
v 5.000000 0.000000 -5.000000
vn -1.0000 -0.0000 -0.0000
vn -0.0000 -0.0000 -1.0000
vn 1.0000 -0.0000 -0.0000
vn -0.0000 -0.0000 1.0000
vn -0.0000 -1.0000 -0.0000
vn -0.0000 1.0000 -0.0000
vt 0.375000 0.000000
vt 0.625000 0.000000
vt 0.625000 0.250000
vt 0.375000 0.250000
vt 0.625000 0.500000
vt 0.375000 0.500000
vt 0.625000 0.750000
vt 0.375000 0.750000
vt 0.625000 1.000000
vt 0.375000 1.000000
vt 0.125000 0.500000
vt 0.125000 0.750000
vt 0.762354 0.684591
vt 0.997004 0.684591
vt 0.997004 0.989643
vt 0.762354 0.989643
s 0
usemtl Material.003
f 1/1/1 2/2/1 4/3/1 3/4/1
f 3/4/2 4/3/2 8/5/2 7/6/2
f 7/6/3 8/5/3 6/7/3 5/8/3
f 5/8/4 6/7/4 2/9/4 1/10/4
f 3/11/5 7/6/5 5/8/5 1/12/5
f 8/13/6 4/14/6 2/15/6 6/16/6
o Cube.002
v 5.500000 0.000000 -5.000000
v 5.500000 4.000000 -5.000000
v 5.500000 0.000000 5.000000
v 5.500000 4.000000 5.000000
v 5.000000 0.000000 -5.000000
v 5.000000 4.000000 -5.000000
v 5.000000 0.000000 5.000000
v 5.000000 4.000000 5.000000
vn 1.0000 -0.0000 -0.0000
vn -0.0000 -0.0000 1.0000
vn -1.0000 -0.0000 -0.0000
vn -0.0000 -0.0000 -1.0000
vn -0.0000 -1.0000 -0.0000
vn -0.0000 1.0000 -0.0000
vt 0.375000 0.000000
vt 0.625000 0.000000
vt 0.625000 0.250000
vt 0.375000 0.250000
vt 0.625000 0.500000
vt 0.375000 0.500000
vt 0.634985 0.272210
vt 0.630825 0.933263
vt 0.169225 0.931789
vt 0.173385 0.270736
vt 0.375000 0.750000
vt 0.625000 0.750000
vt 0.625000 1.000000
vt 0.375000 1.000000
vt 0.125000 0.500000
vt 0.125000 0.750000
vt 0.875000 0.500000
vt 0.875000 0.750000
s 0
usemtl Material.003
f 9/17/7 10/18/7 12/19/7 11/20/7
f 11/20/8 12/19/8 16/21/8 15/22/8
f 15/23/9 16/24/9 14/25/9 13/26/9
f 13/27/10 14/28/10 10/29/10 9/30/10
f 11/31/11 15/22/11 13/27/11 9/32/11
f 16/21/12 12/33/12 10/34/12 14/28/12
o Cube.003
v -5.000000 0.000000 5.000000
v -5.000000 4.000000 5.000000
v 5.000000 0.000000 5.000000
v 5.000000 4.000000 5.000000
v -5.000000 0.000000 5.500000
v -5.000000 4.000000 5.500000
v 5.000000 0.000000 5.500000
v 5.000000 4.000000 5.500000
vn -0.0000 -0.0000 -1.0000
vn 1.0000 -0.0000 -0.0000
vn -0.0000 -0.0000 1.0000
vn -1.0000 -0.0000 -0.0000
vn -0.0000 -1.0000 -0.0000
vn -0.0000 1.0000 -0.0000
vt 0.689848 0.276115
vt 0.694935 0.877444
vt 0.025367 0.878575
vt 0.020280 0.277246
vt 0.375000 0.250000
vt 0.625000 0.250000
vt 0.625000 0.500000
vt 0.375000 0.500000
vt 0.625000 0.750000
vt 0.375000 0.750000
vt 0.625000 1.000000
vt 0.375000 1.000000
vt 0.125000 0.500000
vt 0.125000 0.750000
vt 0.875000 0.500000
vt 0.875000 0.750000
s 0
usemtl Material.003
f 17/35/13 18/36/13 20/37/13 19/38/13
f 19/39/14 20/40/14 24/41/14 23/42/14
f 23/42/15 24/41/15 22/43/15 21/44/15
f 21/44/16 22/43/16 18/45/16 17/46/16
f 19/47/17 23/42/17 21/44/17 17/48/17
f 24/41/18 20/49/18 18/50/18 22/43/18
o Cube.001
v 5.000000 0.000000 -5.000000
v 5.000000 4.000000 -5.000000
v -5.000000 0.000000 -5.000000
v -5.000000 4.000000 -5.000000
v 5.000000 0.000000 -5.500000
v 5.000000 4.000000 -5.500000
v -5.000000 0.000000 -5.500000
v -5.000000 4.000000 -5.500000
vn -0.0000 -0.0000 1.0000
vn -1.0000 -0.0000 -0.0000
vn -0.0000 -0.0000 -1.0000
vn 1.0000 -0.0000 -0.0000
vn -0.0000 -1.0000 -0.0000
vn -0.0000 1.0000 -0.0000
vt 0.689848 0.276115
vt 0.694935 0.877444
vt 0.025367 0.878575
vt 0.020280 0.277246
vt 0.375000 0.250000
vt 0.625000 0.250000
vt 0.625000 0.500000
vt 0.375000 0.500000
vt 0.625000 0.750000
vt 0.375000 0.750000
vt 0.625000 1.000000
vt 0.375000 1.000000
vt 0.125000 0.500000
vt 0.125000 0.750000
vt 0.875000 0.500000
vt 0.875000 0.750000
s 0
usemtl Material.004
f 25/51/19 26/52/19 28/53/19 27/54/19
f 27/55/20 28/56/20 32/57/20 31/58/20
f 31/58/21 32/57/21 30/59/21 29/60/21
f 29/60/22 30/59/22 26/61/22 25/62/22
f 27/63/23 31/58/23 29/60/23 25/64/23
f 32/57/24 28/65/24 26/66/24 30/59/24
o Cube.004
v -5.500000 0.000000 5.000000
v -5.500000 4.000000 5.000000
v -5.500000 0.000000 -5.000000
v -5.500000 4.000000 -5.000000
v -5.000000 0.000000 5.000000
v -5.000000 4.000000 5.000000
v -5.000000 0.000000 -5.000000
v -5.000000 4.000000 -5.000000
vn -1.0000 -0.0000 -0.0000
vn -0.0000 -0.0000 -1.0000
vn 1.0000 -0.0000 -0.0000
vn -0.0000 -0.0000 1.0000
vn -0.0000 -1.0000 -0.0000
vn -0.0000 1.0000 -0.0000
vt 0.375000 0.000000
vt 0.625000 0.000000
vt 0.625000 0.250000
vt 0.375000 0.250000
vt 0.625000 0.500000
vt 0.375000 0.500000
vt 0.634985 0.272210
vt 0.630825 0.933263
vt 0.169225 0.931789
vt 0.173385 0.270736
vt 0.375000 0.750000
vt 0.625000 0.750000
vt 0.625000 1.000000
vt 0.375000 1.000000
vt 0.125000 0.500000
vt 0.125000 0.750000
vt 0.875000 0.500000
vt 0.875000 0.750000
s 0
usemtl Material.005
f 33/67/25 34/68/25 36/69/25 35/70/25
f 35/70/26 36/69/26 40/71/26 39/72/26
f 39/73/27 40/74/27 38/75/27 37/76/27
f 37/77/28 38/78/28 34/79/28 33/80/28
f 35/81/29 39/72/29 37/77/29 33/82/29
f 40/71/30 36/83/30 34/84/30 38/78/30
